<?xml version="1.0" encoding="utf-8"?>
<!-- Generator: Adobe Illustrator 16.0.0, SVG Export Plug-In . SVG Version: 6.00 Build 0)  -->
<!DOCTYPE svg PUBLIC "-//W3C//DTD SVG 1.1//EN" "http://www.w3.org/Graphics/SVG/1.1/DTD/svg11.dtd">
<svg version="1.1" id="Layer_1" xmlns="http://www.w3.org/2000/svg" xmlns:xlink="http://www.w3.org/1999/xlink" x="0px" y="0px"
	 width="512px" height="1024px" viewBox="0 0 512 1024" enable-background="new 0 0 512 1024" xml:space="preserve">
<g>
	<path fill="#454545" d="M190.184,328.841c-2.515,11.552,4.816,22.966,16.368,25.479c11.553,2.516,22.966-4.815,25.48-16.367
		c2.515-11.553-5.744-74.298-5.744-74.298C226.075,263.6,192.708,317.288,190.184,328.841z"/>
	<path fill="#454545" d="M303.686,263.646c0,0-8.259,62.744-5.744,74.297s13.919,18.883,25.48,16.368
		c11.552-2.515,18.883-13.919,16.368-25.479C337.275,317.288,303.908,263.6,303.686,263.646z"/>
	<path fill="#454545" d="M450.312,369.445c-8.555-5.057-13.668-14.002-13.668-23.921c0-4.621,1.132-9.02,3.35-13.065
		c5.076-9.251,5.076-20.293,0-29.535c-2.227-4.055-3.35-8.453-3.35-13.074c0-4.49,1.039-8.777,3.071-12.73
		c4.52-8.74,4.724-18.66,0.575-27.206c-2.422-4.974-3.646-10.263-3.646-15.737c0-2.505,0.251-5.02,0.752-7.479l2.292-11.292
		l-11.524,0.167l-0.799,0.046c-25.582,0-46.395-20.813-46.395-46.396c0-4.556,0.658-9.065,1.967-13.39
		c2.71-8.973,0.808-18.781-5.094-26.25c-6.014-7.6-15.273-11.803-24.878-11.2c-15.663,0.956-33.089,3.749-53.252,8.518
		c-7.247,1.717-14.708,2.607-22.214,3.118c5.521-41.134,34.072-72.182,67.031-71.003c5.308,0.269,9.428-3.813,9.613-8.936
		s-3.813-9.428-8.936-9.613c-33.043-1.03-62.226,21.333-77.016,54.719l-4.381-29.489c-4.648-31.252-28.783-55.387-60.035-60.045
		L165.817,0l5.651,37.96c4.658,31.252,28.793,55.377,60.036,60.036l33.57,5.001c-3.033,8.49-5.224,17.538-6.3,27.048
		c-7.896-0.51-15.784-1.457-23.56-3.285c-42.916-10.114-97.161-17.742-136.17,13.325c-35.502,28.255-52.547,83.892-52.111,170.076
		c0.334,64.842,38.48,136.875,92.791,175.17c25.025,17.649,51.879,26.678,78.26,26.678c12.842,0,25.583-2.145,37.932-6.469
		c7.768-2.729,16.035-2.719,23.895,0.027c54.319,18.994,131.567-3.395,181.674-96.242
		C469.112,395.177,464.203,377.667,450.312,369.445z M234.231,79.642c-23.114-3.442-40.967-21.286-44.41-44.41l-1.958-13.186
		l13.176,1.958c23.124,3.442,40.977,21.295,44.409,44.419l1.968,13.176L234.231,79.642z M445.153,400.503
		c-32.355,59.971-94.136,110.291-159.22,87.548c-5.947-2.078-12.053-3.118-18.149-3.118c-6.068,0-12.128,1.03-18.001,3.09
		c-40.902,14.345-76.599-1.8-99.351-17.853c-48.91-34.499-84.625-101.828-84.922-160.101
		c-0.427-80.134,14.336-130.983,45.096-155.471c25.573-20.358,62.671-23.374,120.35-9.78c11.432,2.691,23.114,4.083,34.75,4.25
		c0.427,0.075,0.798,0.288,1.243,0.297c0.121,0,0.232,0,0.344,0c0.482,0,0.909-0.195,1.373-0.27
		c11.961-0.046,23.838-1.41,35.334-4.129c19.125-4.528,35.512-7.164,50.107-8.063c3.609-0.176,6.913,1.308,9.187,4.185
		c2.171,2.747,2.867,6.162,1.893,9.372c-1.837,6.059-2.765,12.369-2.765,18.753c0,32.671,24.236,59.776,55.674,64.294
		c0,0.223,0,0.437,0,0.659c0,8.305,1.856,16.322,5.512,23.847c1.568,3.229,1.438,7.08-0.371,10.588
		c-3.358,6.531-5.141,13.871-5.141,21.239c0,7.665,1.949,15.273,5.633,22.001c2.069,3.767,2.069,7.914,0,11.682
		c-3.684,6.728-5.633,14.336-5.633,22.001c0,16.304,8.731,31.586,22.78,39.891C446.146,388.551,448.03,395.168,445.153,400.503z"/>
</g>
<g>
	<path fill="#FFFFFF" d="M190.184,840.842c-2.515,11.551,4.816,22.965,16.368,25.479c11.553,2.516,22.966-4.814,25.48-16.367
		s-5.743-74.297-5.743-74.297C226.075,775.6,192.707,829.289,190.184,840.842z"/>
	<path fill="#FFFFFF" d="M303.686,775.646c0,0-8.259,62.744-5.744,74.297s13.919,18.883,25.48,16.369
		c11.552-2.516,18.883-13.92,16.368-25.48C337.275,829.289,303.908,775.6,303.686,775.646z"/>
	<path fill="#FFFFFF" d="M450.312,881.445c-8.555-5.057-13.668-14.002-13.668-23.92c0-4.621,1.132-9.02,3.35-13.066
		c5.076-9.25,5.076-20.293,0-29.535c-2.227-4.055-3.35-8.453-3.35-13.074c0-4.49,1.039-8.777,3.071-12.73
		c4.52-8.74,4.724-18.66,0.575-27.205c-2.422-4.975-3.646-10.264-3.646-15.738c0-2.506,0.251-5.02,0.752-7.479l2.292-11.293
		l-11.524,0.168l-0.799,0.045c-25.582,0-46.395-20.812-46.395-46.395c0-4.557,0.658-9.066,1.967-13.391
		c2.71-8.973,0.808-18.779-5.094-26.25c-6.014-7.6-15.273-11.803-24.878-11.199c-15.663,0.955-33.089,3.748-53.252,8.518
		c-7.247,1.717-14.708,2.607-22.214,3.117c5.521-41.133,34.072-72.182,67.031-71.002c5.308,0.268,9.428-3.814,9.613-8.936
		c0.186-5.123-3.813-9.428-8.936-9.613c-33.043-1.031-62.226,21.332-77.016,54.719l-4.381-29.49
		c-4.648-31.252-28.783-55.387-60.035-60.045L165.816,512l5.651,37.96c4.658,31.252,28.793,55.377,60.036,60.035l33.57,5.002
		c-3.033,8.49-5.224,17.537-6.3,27.049c-7.896-0.512-15.784-1.457-23.56-3.285c-42.916-10.115-97.161-17.742-136.17,13.324
		c-35.502,28.256-52.547,83.893-52.111,170.076c0.334,64.842,38.48,136.875,92.791,175.17c25.025,17.648,51.879,26.678,78.26,26.678
		c12.842,0,25.582-2.143,37.932-6.467c7.768-2.729,16.035-2.719,23.895,0.027c54.319,18.994,131.567-3.396,181.674-96.242
		C469.112,907.178,464.203,889.668,450.312,881.445z M234.231,591.643c-23.114-3.443-40.968-21.287-44.409-44.41l-1.959-13.186
		l13.177,1.959c23.124,3.441,40.977,21.295,44.409,44.418l1.968,13.176L234.231,591.643z M445.153,912.504
		c-32.355,59.971-94.136,110.291-159.22,87.547c-5.947-2.078-12.053-3.117-18.149-3.117c-6.068,0-12.128,1.029-18.001,3.09
		c-40.902,14.346-76.599-1.801-99.352-17.854c-48.91-34.498-84.625-101.828-84.921-160.1
		c-0.427-80.135,14.336-130.984,45.096-155.471c25.573-20.359,62.671-23.375,120.35-9.781c11.432,2.691,23.114,4.082,34.75,4.25
		c0.427,0.074,0.798,0.287,1.243,0.297c0.121,0,0.232,0,0.344,0c0.482,0,0.909-0.195,1.373-0.27
		c11.961-0.045,23.838-1.41,35.334-4.129c19.125-4.527,35.512-7.164,50.107-8.062c3.609-0.178,6.913,1.307,9.187,4.184
		c2.171,2.748,2.867,6.162,1.893,9.373c-1.837,6.059-2.765,12.369-2.765,18.752c0,32.672,24.236,59.775,55.674,64.295
		c0,0.223,0,0.436,0,0.658c0,8.305,1.856,16.322,5.512,23.848c1.568,3.229,1.438,7.08-0.371,10.588
		c-3.358,6.531-5.141,13.871-5.141,21.24c0,7.664,1.949,15.273,5.633,22c2.069,3.768,2.069,7.914,0,11.682
		c-3.684,6.729-5.633,14.336-5.633,22.002c0,16.303,8.731,31.586,22.78,39.891C446.146,900.551,448.03,907.168,445.153,912.504z"/>
</g>
</svg>
